<svg xmlns="http://www.w3.org/2000/svg" version="1.1" xmlns:xlink="http://www.w3.org/1999/xlink" width="500" height="500"><svg version="1.1" id="SvgjsSvg1040" xmlns="http://www.w3.org/2000/svg" xmlns:xlink="http://www.w3.org/1999/xlink" x="0px" y="0px" viewBox="0 0 500 500" style="enable-background:new 0 0 500 500;" xml:space="preserve">
<style type="text/css">
	.st0{fill:#F2F0F0;}
	.st1{fill:#4F8ABA;}
	.st2{fill:#0D273F;}
</style>
<rect class="st0" width="500" height="500"></rect>
<path class="st1" d="M340,197.2c-16.8,3.3-33.6,7.1-50.2,11.5c-19.9,5.3-41.7,12-63.7,20.4c0,0,0,0-0.1,0c0-0.1,0-0.2,0-0.2
	c-5.3-32.6-12.8-62.9-20-87l-2.2-7.4l-4.9,5.3c-12,13-25.7,28.1-37.4,41.5c11.9-9.5,25.2-20.3,37.3-30.4c4.3,28.3,7.8,56.6,9.8,85
	c0,0,0,0.1,0,0.1C147,261.7,86.7,300.5,62.3,356.6c-12.7,29-11.5,63.8,7.3,89.3c0,0,0,0,0,0c0.2,0.2,0.3,0.4,0.5,0.6
	c2.5,3.3,5.3,6.5,8.4,9.5c0.8,0.7,1.5,1.4,2.3,2.1c0.2,0.2,0.4,0.4,0.6,0.6c0.7,0.7,1.5,1.3,2.3,1.9c0.2,0.2,0.4,0.3,0.7,0.5
	c0.6,0.5,1.2,0.9,1.8,1.4c0.3,0.2,0.6,0.4,0.8,0.6c0.7,0.5,1.5,1.1,2.2,1.6c0.3,0.2,0.6,0.4,1,0.6c0.6,0.4,1.1,0.7,1.7,1.1
	c0.3,0.2,0.6,0.4,1,0.6c0.7,0.4,1.5,0.8,2.2,1.2c0.4,0.2,0.7,0.4,1.1,0.6c0.6,0.3,1.2,0.6,1.8,0.9c0.5,0.2,1,0.5,1.5,0.7
	c0.5,0.2,1.1,0.5,1.6,0.7c0.4,0.2,0.8,0.4,1.3,0.5c0.6,0.3,1.3,0.5,1.9,0.8c0.6,0.2,1.2,0.4,1.7,0.6c0.4,0.1,0.7,0.3,1.1,0.4
	c24.2,8.1,51.7,3.7,72.7-13c54.9-44.3,59.5-134.6,48.5-215.4c6-3,11.7-5.9,17.1-8.4C276.2,222.1,307.9,209.5,340,197.2z
	 M210.1,295.4c-0.9,32.3-4.8,66.1-16.4,96.2c-9.8,25.7-30,54.1-59.1,55.9c-17.5,1.2-33.2-7.8-42.5-21.5c-5.4-7.9-8.7-17.3-9.1-27.3
	c-1.2-61.8,68.4-111.8,126.7-143.7C210.3,268.5,210.4,281.9,210.1,295.4z"></path>
<g>
	<path class="st2" d="M178.7,405.7c-22.2-13.3-31.9-41.7-23.2-66.4c6.7-19.4,22.9-35.5,39.7-46.5c34.1-21.4,80.3-31.2,119.7-34.8
		c40.5-3.2,81.2-2.6,121.2,4.3c7.9,1.5,15.8,3.2,23.5,5.7c-7.9-1.4-15.9-1.9-23.8-2.2C372,264,287,277.2,230.4,306.4
		c-23.3,12.7-49.4,30.1-57.1,56.2C169.4,376.4,172.9,392.4,178.7,405.7L178.7,405.7z"></path>
	<path class="st2" d="M365.3,31.6c-9.6-14.4-27.7-19.1-43.7-14.4c-20.9,6-36.2,23.2-46.8,41c-9.4,16.3-15.7,34-19.9,52.2l-0.1,0
		c-4.2,18.2-6.4,36.8-7.4,55.1c-0.7,11.5-1.1,23-1.2,34.5c0,0,0,0,0,0c-5.9,5.2-11.9,10.3-17.8,15.4c6-3,11.9-6.1,17.8-9.4l0,0
		c0,0,0,0.1,0,0.1c0,14.9,0.3,29.7,0.9,44.5c1,35.1,4.3,69.5,2.3,104.3c-1.6,20-4.5,42.4-20.9,55.9c19.8-10.2,27.2-34.1,31.6-54.4
		c4.3-21,5.9-42.3,7.2-63.6c1.5-26.6,2.4-57.2,4.1-83.8c0.4-6.1,0.8-12.4,1.3-18.9c0,0,0-0.1,0-0.1c21.6-14.2,41.8-30.5,59.5-49.2
		c20.3-22.3,39.8-49.5,40.9-81.4C373.2,49.9,371.1,40,365.3,31.6z M316.5,127.6c-12.8,17-27.3,32.4-42.5,47.1
		c1.8-19.4,4.6-39.5,9.6-58.5l-0.1,0c5.6-21.6,14.1-41.6,27.5-57.5c11-13,33.5-24.9,34.9,1C346.4,83.4,330.6,108.6,316.5,127.6z"></path>
</g>
</svg><style>@media (prefers-color-scheme: light) { :root { filter: none; } }
@media (prefers-color-scheme: dark) { :root { filter: none; } }
</style></svg>