<?xml version="1.0" encoding="utf-8"?>
<!-- Generator: Adobe Illustrator 28.2.0, SVG Export Plug-In . SVG Version: 6.00 Build 0)  -->
<svg version="1.1" id="Layer_1" xmlns="http://www.w3.org/2000/svg" xmlns:xlink="http://www.w3.org/1999/xlink" x="0px" y="0px"
	 viewBox="0 0 500 500" style="enable-background:new 0 0 500 500;" xml:space="preserve">
<style type="text/css">
	.st0{fill:#010101;}
</style>
<path class="st0" d="M255.3,206.5c-20.8-15.1-19.1-50.7-15.4-73.4c6.5-40.9,35.1-108.9,76.3-124.7c18-6.7,39.2,2,48.1,18.8
	c1.9,3.4,3.3,7.2,4.1,11.1c9.4,42.8-12.8,91.6-30.7,129.3c-21.7,44.9-47.4,86.3-66.7,132c-9.2,22.6-16.8,45.8-15.2,70.7
	c-2.5-5.8-4.1-12-5.2-18.4c-1-6.3-1.5-12.8-1.5-19.3c0.2-25.8,6.7-51,14.6-75.4c13.6-41.6,32.7-81.1,49-121.1
	c10.1-25.6,24.5-61,20.6-88.4c0,0-0.3-1.7-0.3-1.7l-0.1-0.8c-0.1-0.2-0.1-0.3-0.1-0.5c0-0.1-0.1-0.2-0.1-0.2c-0.6-2.3-3.2-4-5.6-3.5
	c-5.3,1.6-9.4,4.8-14.4,9c-4,3.5-7.9,7.5-11.5,11.6C276.8,88.5,230.3,172.6,255.3,206.5L255.3,206.5z"/>
<path class="st0" d="M189.7,367c-21.9-6.3-39.5-25.3-30.6-49.3c8.8-22,32.6-33.2,54.8-35.9c24.3-2.9,48.9,3.4,70,15.1
	c13.9,7.7,28.7,16.8,42.4,24.6c33.5,18.6,78.3,45.4,115.8,26.8c6.2-3,12.2-6.9,15.1-12.9c4.5-10.8-3.3-23.3-10.5-31.7
	c-3.1-3.5-6.4-6.7-10.4-9.1c9.9,1.4,18.7,6.9,26,13.7c8.2,7.7,14.1,19,12.4,31.2c-1.8,12.5-10.2,22.1-19.7,29.3
	c-17.5,13.7-41.1,18.6-62.7,16.2c-40.2-4.4-75.7-25.5-108.9-46c-5.3-3.3-14.9-9.5-20.1-12.6c-7.8-4.6-16.1-8.4-24.6-11.1
	c-13.1-4-26.9-5.4-40.3-2.4c-11.8,2.8-24.7,9.5-26.5,22.1C170.6,347.9,180.6,358.6,189.7,367L189.7,367z"/>
<path class="st0" d="M204.4,130.7c-14.1,16.2-29.2,33.6-42.7,50.3c11.6-8.5,24-18,35.7-27.2c3.4,26.8,6.1,53.6,7.6,80.2
	c8.1-3.3,16.3-6.4,24.6-9.3C223.4,192.7,214.7,161.5,204.4,130.7z"/>
<path class="st0" d="M251.3,217.6c-7.3,2.3-14.6,4.6-21.8,7.2c1.2,6,2.2,12.1,3.2,18.2c0.2,1.4,0.4,2.7,0.6,4.1
	c8.2-4.3,16.4-8.5,24.6-12.6c11.3-5.6,23.3-11.3,34.8-16.5c15.6-7.1,31.4-14,47.3-20.9C310.1,201.7,280.4,208.7,251.3,217.6z"/>
<path class="st0" d="M229.6,224.8c-8.3,2.9-16.5,6-24.6,9.3c0.2,3.9,0.4,7.7,0.6,11.6c0.2,5.5,0.4,11.1,0.5,16.6
	c9-5.3,18.2-10.4,27.4-15.2c-0.2-1.4-0.4-2.7-0.6-4.1C231.8,236.8,230.7,230.8,229.6,224.8z"/>
<path class="st0" d="M233.4,247c-0.2-1.4-0.4-2.7-0.6-4.1c-1-6.1-2-12.1-3.2-18.2c-6.1-32.1-14.9-63.3-25.2-94
	c-14.1,16.2-29.2,33.6-42.7,50.3c11.6-8.5,24-18,35.7-27.2c3.4,26.8,6.1,53.6,7.6,80.2c0.2,3.9,0.4,7.7,0.6,11.6
	c0.2,5.5,0.4,11.1,0.5,16.6c0.5,27.6-0.8,55.5-5.4,82.4c-6.4,37.3-24.5,92.9-67.2,97.3c-7.3,0.5-14.2-0.9-20.3-3.8
	c-2-0.9-3.9-2.1-5.7-3.3l-23,36.4c1.9,1.2,3.8,2.4,5.8,3.5c3.9,2.2,8.1,4,12.4,5.5c39,14,79.8-4.1,102.7-36.6
	C244.1,388.9,242.8,311,233.4,247z"/>
<path class="st0" d="M251.3,217.6c-7.3,2.3-14.6,4.6-21.8,7.2c-8.3,2.9-16.5,6-24.6,9.3c-21.6,8.8-42.6,19-62.5,31.2
	c-34.4,21.2-67.6,49.3-85.3,86.7c-7.3,15.4-11.4,32.5-10.9,49.8c0.5,29.9,17.7,58.6,43.8,73c2,1.1,4,2.1,6.1,3l23.1-37.3
	c-2.2-0.6-4.3-1.4-6.3-2.3c-14.3-6.7-24.2-21.5-25-38.3c-1.8-27.7,17.1-55.8,36.2-75.7c23.7-24.5,52-44.5,81.7-61.9
	c9-5.3,18.2-10.4,27.4-15.2c8.2-4.3,16.4-8.5,24.6-12.6c11.3-5.6,23.3-11.3,34.8-16.5c15.6-7.1,31.4-14,47.3-20.9
	C310.1,201.7,280.4,208.7,251.3,217.6z"/>
</svg>
