<?xml version="1.0" encoding="utf-8"?>
<!-- Generator: Adobe Illustrator 28.2.0, SVG Export Plug-In . SVG Version: 6.00 Build 0)  -->
<svg version="1.1" id="Layer_1" xmlns="http://www.w3.org/2000/svg" xmlns:xlink="http://www.w3.org/1999/xlink" x="0px" y="0px"
	 viewBox="0 0 500 500" style="enable-background:new 0 0 500 500;" xml:space="preserve">
<style type="text/css">
	.st0{fill:none;stroke:#000000;stroke-width:14;stroke-linecap:round;stroke-miterlimit:10;}
</style>
<path class="st0" d="M255.3,206.5c-36.7-34.9,20-164.5,65.6-181.6c12.6-4.7,26.4,3,29.5,16.1c19.6,81.7-117,237.6-94.7,329.3"/>
<path class="st0" d="M189.7,367c-64.7-36.6,6.7-101.3,86.4-54c48.5,28.8,114.6,75,165.6,49.3s10.3-62.9-5.3-67.8"/>
<path class="st0" d="M161.7,181.1c0,0,40.3-38.4,40.3-38.4c61.9,271-33.8,339.2-93.3,317c-2.4-0.9-4.8-2-7.1-3.2
	c-2.2-1.2-4.3-2.4-6.4-3.8"/>
<path class="st0" d="M108.6,459.7c-2.4-0.9-4.8-2-7.1-3.2c-2.2-1.2-4.3-2.4-6.4-3.8c-56-38.3-52.9-169.2,245-255.7"/>
</svg>
